<svg viewBox="0 0 900 500" xmlns="http://www.w3.org/2000/svg" style="background:#fff; font-family:Arial, sans-serif;">
<rect width="900" height="500" fill="white" />
<line x1="80" y1="420.0" x2="820" y2="420.0" stroke="#eee" />
<line x1="80" y1="371.42857142857144" x2="820" y2="371.42857142857144" stroke="#eee" />
<line x1="80" y1="322.8571428571429" x2="820" y2="322.8571428571429" stroke="#eee" />
<line x1="80" y1="274.28571428571433" x2="820" y2="274.28571428571433" stroke="#eee" />
<line x1="80" y1="225.71428571428572" x2="820" y2="225.71428571428572" stroke="#eee" />
<line x1="80" y1="177.14285714285714" x2="820" y2="177.14285714285714" stroke="#eee" />
<line x1="80" y1="128.5714285714286" x2="820" y2="128.5714285714286" stroke="#eee" />
<line x1="80" y1="80.0" x2="820" y2="80.0" stroke="#eee" />
<line x1="405.6" y1="80" x2="405.6" y2="420" stroke="#ccc" stroke-dasharray="4" />
<text x="410.6" y="100" fill="#999" font-size="12" font-weight="bold" transform="rotate(90, 410.6, 100)">Syrian War</text>
<line x1="642.4" y1="80" x2="642.4" y2="420" stroke="#ccc" stroke-dasharray="4" />
<text x="647.4" y="100" fill="#999" font-size="12" font-weight="bold" transform="rotate(90, 647.4, 100)">Collapse</text>
<line x1="672.0" y1="80" x2="672.0" y2="420" stroke="#ccc" stroke-dasharray="4" />
<text x="677.0" y="100" fill="#999" font-size="12" font-weight="bold" transform="rotate(90, 677.0, 100)">Blast</text>
<polyline points="80.0,419.8662758382828 109.6,420.0 139.2,420.0 168.8,420.0 198.4,420.0 228.0,420.0 257.6,416.8211856414654 287.20000000000005,408.60846481723354 316.8,408.4820881369294 346.4,409.27561612953696 376.0,420.0 405.6,420.0 435.2,384.0714036887814 464.8,168.49629903039178 494.40000000000003,80.0 524.0,150.4855647922521 553.6,223.34936236827477 583.2,297.9010233744994 612.8,374.2266602930867 642.4,420.0 672.0,420.0 701.6,420.0 731.2,420.0 760.8000000000001,420.0 790.4,420.0 820.0,420.0" fill="none" stroke="#dc2626" stroke-width="3" />
<circle cx="80.0" cy="419.8662758382828" r="3" fill="#dc2626" />
<circle cx="109.6" cy="420.0" r="3" fill="#dc2626" />
<circle cx="139.2" cy="420.0" r="3" fill="#dc2626" />
<circle cx="168.8" cy="420.0" r="3" fill="#dc2626" />
<circle cx="198.4" cy="420.0" r="3" fill="#dc2626" />
<circle cx="228.0" cy="420.0" r="3" fill="#dc2626" />
<circle cx="257.6" cy="416.8211856414654" r="3" fill="#dc2626" />
<circle cx="287.20000000000005" cy="408.60846481723354" r="3" fill="#dc2626" />
<circle cx="316.8" cy="408.4820881369294" r="3" fill="#dc2626" />
<circle cx="346.4" cy="409.27561612953696" r="3" fill="#dc2626" />
<circle cx="376.0" cy="420.0" r="3" fill="#dc2626" />
<circle cx="405.6" cy="420.0" r="3" fill="#dc2626" />
<circle cx="435.2" cy="384.0714036887814" r="3" fill="#dc2626" />
<circle cx="464.8" cy="168.49629903039178" r="3" fill="#dc2626" />
<circle cx="494.40000000000003" cy="80.0" r="3" fill="#dc2626" />
<circle cx="524.0" cy="150.4855647922521" r="3" fill="#dc2626" />
<circle cx="553.6" cy="223.34936236827477" r="3" fill="#dc2626" />
<circle cx="583.2" cy="297.9010233744994" r="3" fill="#dc2626" />
<circle cx="612.8" cy="374.2266602930867" r="3" fill="#dc2626" />
<circle cx="642.4" cy="420.0" r="3" fill="#dc2626" />
<circle cx="672.0" cy="420.0" r="3" fill="#dc2626" />
<circle cx="701.6" cy="420.0" r="3" fill="#dc2626" />
<circle cx="731.2" cy="420.0" r="3" fill="#dc2626" />
<circle cx="760.8000000000001" cy="420.0" r="3" fill="#dc2626" />
<circle cx="790.4" cy="420.0" r="3" fill="#dc2626" />
<circle cx="820.0" cy="420.0" r="3" fill="#dc2626" />
<polyline points="80.0,152.26419285365523 109.6,155.63527352469316 139.2,150.31021118164068 168.8,144.2469722202846 198.4,134.9649941580638 228.0,132.51170567103787 257.6,135.7255532400947 287.20000000000005,136.69755990164612 316.8,146.85386221749457 346.4,151.06521170479925 376.0,153.8414667901883 405.6,153.6478044632894 435.2,151.5004332807698 464.8,144.1003757253552 494.40000000000003,184.33658600413148 524.0,190.93257887151043 553.6,193.91231322362452 583.2,186.26274264890762 612.8,188.91789240593647 642.4,191.26357962698782 672.0,196.07747578224775 701.6,202.74377999629735 731.2,194.3656867345124 760.8000000000001,185.87266110471447 790.4,168.55002544030097" fill="none" stroke="#2563eb" stroke-width="3" />
<rect x="77.0" y="149.26419285365523" width="6" height="6" fill="#2563eb" />
<rect x="106.6" y="152.63527352469316" width="6" height="6" fill="#2563eb" />
<rect x="136.2" y="147.31021118164068" width="6" height="6" fill="#2563eb" />
<rect x="165.8" y="141.2469722202846" width="6" height="6" fill="#2563eb" />
<rect x="195.4" y="131.9649941580638" width="6" height="6" fill="#2563eb" />
<rect x="225.0" y="129.51170567103787" width="6" height="6" fill="#2563eb" />
<rect x="254.60000000000002" y="132.7255532400947" width="6" height="6" fill="#2563eb" />
<rect x="284.20000000000005" y="133.69755990164612" width="6" height="6" fill="#2563eb" />
<rect x="313.8" y="143.85386221749457" width="6" height="6" fill="#2563eb" />
<rect x="343.4" y="148.06521170479925" width="6" height="6" fill="#2563eb" />
<rect x="373.0" y="150.8414667901883" width="6" height="6" fill="#2563eb" />
<rect x="402.6" y="150.6478044632894" width="6" height="6" fill="#2563eb" />
<rect x="432.2" y="148.5004332807698" width="6" height="6" fill="#2563eb" />
<rect x="461.8" y="141.1003757253552" width="6" height="6" fill="#2563eb" />
<rect x="491.40000000000003" y="181.33658600413148" width="6" height="6" fill="#2563eb" />
<rect x="521.0" y="187.93257887151043" width="6" height="6" fill="#2563eb" />
<rect x="550.6" y="190.91231322362452" width="6" height="6" fill="#2563eb" />
<rect x="580.2" y="183.26274264890762" width="6" height="6" fill="#2563eb" />
<rect x="609.8" y="185.91789240593647" width="6" height="6" fill="#2563eb" />
<rect x="639.4" y="188.26357962698782" width="6" height="6" fill="#2563eb" />
<rect x="669.0" y="193.07747578224775" width="6" height="6" fill="#2563eb" />
<rect x="698.6" y="199.74377999629735" width="6" height="6" fill="#2563eb" />
<rect x="728.2" y="191.3656867345124" width="6" height="6" fill="#2563eb" />
<rect x="757.8000000000001" y="182.87266110471447" width="6" height="6" fill="#2563eb" />
<rect x="787.4" y="165.55002544030097" width="6" height="6" fill="#2563eb" />
<polyline points="80.0,261.76861790248324 109.6,270.8573989868165 139.2,261.87478637695295 168.8,250.6996743338447 198.4,245.05547659737715 228.0,243.08352225167422 257.6,239.12690298897888 287.20000000000005,235.2173461914064 316.8,231.0600629534042 346.4,220.41160583496102 376.0,222.98245475593401 405.6,207.11815643638158 435.2,214.968938039054 464.8,219.77342215541643 494.40000000000003,277.86894610600234 524.0,283.47782561121096 553.6,276.8886977916324 583.2,259.03394388008144 612.8,253.674109458635 642.4,248.65571581478684 672.0,245.6432515985657 701.6,237.78738565623792 731.2,252.42027332677253 760.8000000000001,260.55009679658116 790.4,255.86596570696156" fill="none" stroke="#16a34a" stroke-width="3" stroke-dasharray="5,2" />
<polygon points="80.0,256.76861790248324 76.0,264.76861790248324 84.0,264.76861790248324" fill="#16a34a" />
<polygon points="109.6,265.8573989868165 105.6,273.8573989868165 113.6,273.8573989868165" fill="#16a34a" />
<polygon points="139.2,256.87478637695295 135.2,264.87478637695295 143.2,264.87478637695295" fill="#16a34a" />
<polygon points="168.8,245.6996743338447 164.8,253.6996743338447 172.8,253.6996743338447" fill="#16a34a" />
<polygon points="198.4,240.05547659737715 194.4,248.05547659737715 202.4,248.05547659737715" fill="#16a34a" />
<polygon points="228.0,238.08352225167422 224.0,246.08352225167422 232.0,246.08352225167422" fill="#16a34a" />
<polygon points="257.6,234.12690298897888 253.60000000000002,242.12690298897888 261.6,242.12690298897888" fill="#16a34a" />
<polygon points="287.20000000000005,230.2173461914064 283.20000000000005,238.2173461914064 291.20000000000005,238.2173461914064" fill="#16a34a" />
<polygon points="316.8,226.0600629534042 312.8,234.0600629534042 320.8,234.0600629534042" fill="#16a34a" />
<polygon points="346.4,215.41160583496102 342.4,223.41160583496102 350.4,223.41160583496102" fill="#16a34a" />
<polygon points="376.0,217.98245475593401 372.0,225.98245475593401 380.0,225.98245475593401" fill="#16a34a" />
<polygon points="405.6,202.11815643638158 401.6,210.11815643638158 409.6,210.11815643638158" fill="#16a34a" />
<polygon points="435.2,209.968938039054 431.2,217.968938039054 439.2,217.968938039054" fill="#16a34a" />
<polygon points="464.8,214.77342215541643 460.8,222.77342215541643 468.8,222.77342215541643" fill="#16a34a" />
<polygon points="494.40000000000003,272.86894610600234 490.40000000000003,280.86894610600234 498.40000000000003,280.86894610600234" fill="#16a34a" />
<polygon points="524.0,278.47782561121096 520.0,286.47782561121096 528.0,286.47782561121096" fill="#16a34a" />
<polygon points="553.6,271.8886977916324 549.6,279.8886977916324 557.6,279.8886977916324" fill="#16a34a" />
<polygon points="583.2,254.03394388008144 579.2,262.03394388008144 587.2,262.03394388008144" fill="#16a34a" />
<polygon points="612.8,248.674109458635 608.8,256.67410945863503 616.8,256.67410945863503" fill="#16a34a" />
<polygon points="642.4,243.65571581478684 638.4,251.65571581478684 646.4,251.65571581478684" fill="#16a34a" />
<polygon points="672.0,240.6432515985657 668.0,248.6432515985657 676.0,248.6432515985657" fill="#16a34a" />
<polygon points="701.6,232.78738565623792 697.6,240.78738565623792 705.6,240.78738565623792" fill="#16a34a" />
<polygon points="731.2,247.42027332677253 727.2,255.42027332677253 735.2,255.42027332677253" fill="#16a34a" />
<polygon points="760.8000000000001,255.55009679658116 756.8000000000001,263.55009679658116 764.8000000000001,263.55009679658116" fill="#16a34a" />
<polygon points="790.4,250.86596570696156 786.4,258.86596570696156 794.4,258.86596570696156" fill="#16a34a" />
<line x1="80" y1="420" x2="820" y2="420" stroke="#333" stroke-width="2" />
<line x1="80" y1="80" x2="80" y2="420" stroke="#dc2626" stroke-width="2" />
<line x1="820" y1="80" x2="820" y2="420" stroke="#2563eb" stroke-width="2" />
<text x="450.0" y="40.0" text-anchor="middle" font-size="20" font-weight="bold">Lebanon: Migration vs. School Enrollment</text>
<text x="70" y="250.0" text-anchor="middle" transform="rotate(-90, 70, 250.0)" fill="#dc2626" font-size="12" font-weight="bold">Cumulative Net Migration (Stock)</text>
<text x="870" y="250.0" text-anchor="middle" transform="rotate(90, 870, 250.0)" fill="#2563eb" font-size="12" font-weight="bold">Enrollment Rate (%)</text>
<text x="80.0" y="440" text-anchor="middle" font-size="11">2000</text>
<text x="139.2" y="440" text-anchor="middle" font-size="11">2002</text>
<text x="198.4" y="440" text-anchor="middle" font-size="11">2004</text>
<text x="257.6" y="440" text-anchor="middle" font-size="11">2006</text>
<text x="316.8" y="440" text-anchor="middle" font-size="11">2008</text>
<text x="376.0" y="440" text-anchor="middle" font-size="11">2010</text>
<text x="435.2" y="440" text-anchor="middle" font-size="11">2012</text>
<text x="494.40000000000003" y="440" text-anchor="middle" font-size="11">2014</text>
<text x="553.6" y="440" text-anchor="middle" font-size="11">2016</text>
<text x="612.8" y="440" text-anchor="middle" font-size="11">2018</text>
<text x="672.0" y="440" text-anchor="middle" font-size="11">2020</text>
<text x="731.2" y="440" text-anchor="middle" font-size="11">2022</text>
<text x="790.4" y="440" text-anchor="middle" font-size="11">2024</text>
<rect x="100" y="320" width="15" height="15" fill="#dc2626" />
<text x="120" y="332" font-size="12">Migration Stock</text>
<rect x="100" y="345" width="15" height="15" fill="#2563eb" />
<text x="120" y="357" font-size="12">Primary Enrollment (%)</text>
<path d="M 100 385 L 107.5 375 L 115 385 Z" fill="#16a34a" />
<text x="120" y="382" font-size="12">Secondary Enrollment (%)</text>
</svg>